<?xml version="1.0" encoding="UTF-8"?>
<!DOCTYPE svg PUBLIC "-//W3C//DTD SVG 1.1//EN" "http://www.w3.org/Graphics/SVG/1.1/DTD/svg11.dtd">
<!-- Creator: CorelDRAW 2021 (64-Bit) -->
<svg xmlns="http://www.w3.org/2000/svg" xml:space="preserve" width="0.797362in" height="0.797362in" version="1.1" style="shape-rendering:geometricPrecision; text-rendering:geometricPrecision; image-rendering:optimizeQuality; fill-rule:evenodd; clip-rule:evenodd"
viewBox="0 0 260.5 260.5"
 xmlns:xlink="http://www.w3.org/1999/xlink"
 xmlns:xodm="http://www.corel.com/coreldraw/odm/2003">
 <defs>
  <style type="text/css">
   <![CDATA[
    .str0 {stroke:black;stroke-width:9.08;stroke-miterlimit:2.61313}
    .str1 {stroke:black;stroke-width:9.08;stroke-linecap:round;stroke-linejoin:round;stroke-miterlimit:2.61313}
    .fil0 {fill:none}
   ]]>
  </style>
 </defs>
 <g id="Layer_x0020_1">
  <metadata id="CorelCorpID_0Corel-Layer"/>
  <g id="_2115621881072">
   <circle class="fil0 str0" cx="130.25" cy="130.25" r="125.71"/>
   <path class="fil0 str1" d="M195.34 77.02l0 0 0.01 0.02 0.23 0.28 0.03 0.03 0.01 0.01 0.25 0.31 0.02 0.03 0.04 0.05c2.46,3.18 3.8,7.23 3.48,11.52l0 0c-0.02,0.33 -0.06,0.65 -0.1,0.97l-5.72 77.24c-0.68,9.23 -8.92,13.86 -18.03,15.54 -4.57,0.84 -16.29,-7.87 -15.54,-18.03l2.79 -37.69 -73.95 63.76c-7.01,6.05 -17.69,5.25 -23.74,-1.76l0 0c-6.05,-7.01 -5.25,-17.69 1.76,-23.74l73.95 -63.76 -37.69 -2.79c-10.15,-0.75 -17.05,-13.63 -15.54,-18.03 3,-8.76 8.79,-16.22 18.03,-15.54l77.26 5.72c0.32,0.01 0.63,0.02 0.95,0.04l0 0c4.09,0.3 7.74,2.07 10.48,4.74l0.04 0.03 0.17 0.17 0.03 0.04 0.03 0.03 0.03 0.04 0.03 0.03 0.03 0.03 0.03 0.04 0.03 0.03 0.01 0.01 0.02 0.02 0.03 0.04 0.03 0.04 0.17 0.18 0.02 0.02 0.02 0.02 0.26 0.3z"/>
  </g>
 </g>
</svg>
